<svg xmlns="http://www.w3.org/2000/svg" xmlns:xlink="http://www.w3.org/1999/xlink" width="474.219" height="162.461" enable-background="new 0 0 474.219 162.461" overflow="visible" viewBox="0 0 474.219 162.461" xml:space="preserve"><metadata><variableSets xmlns="http://ns.adobe.com/Variables/1.0/"><variableSet locked="none" varSetName="binding1"><variables/><v:sampleDataSets xmlns="http://ns.adobe.com/GenericCustomNamespace/1.0/" xmlns:v="http://ns.adobe.com/Variables/1.0/"/></variableSet></variableSets><sfw xmlns="http://ns.adobe.com/SaveForWeb/1.0/"><slices/><sliceSourceBounds width="474.219" height="162.461" x="69.375" y="314.602" bottomLeftOrigin="true"/></sfw></metadata><switch><g><g id="Layer_1"><path fill="#066FAF" d="M429.688,44.531c4.821-4.821,4.564-4.564,44.531-44.531H45.114L0,45.114v117.347 h429.688V44.531z M162.461,82.813V57.382l12.716,12.716L162.461,82.813z"/><path fill="#FFFFA3" d="M20,142.461V53.398L53.398,20h89.063v33.398h-77.93L53.398,64.531v44.531h55.664V97.93 H97.93L64.531,64.531h77.93v77.93H20z"/><g><path fill="#FFFFA3" d="M153.363,20l33.398,33.398h89.063v-0.27l0.013,0.013V20H153.363z"/><path fill="#FFFFA3" d="M131.098,142.461h144.727v-33.398h-66.797L220.16,97.93h55.664V64.531h-66.797 L131.098,142.461z"/><path fill="#FFFFA3" d="M420.82,20H287.227v33.398h55.664l-11.133,11.133h-44.531v77.93h122.461v-77.93 h-33.398L420.82,20z M376.289,109.063h-55.664V97.93h55.664V109.063z"/></g></g></g></switch></svg>